<svg width="374" height="276" viewBox="0 0 374 276" fill="none" xmlns="http://www.w3.org/2000/svg">
<path d="M255.725 242.471C255.725 311.903 199.518 368.188 130.186 368.188C60.8529 368.188 4.64576 311.903 4.64576 242.471C4.64579 173.038 60.853 116.753 130.186 116.753C199.518 116.753 255.725 173.038 255.725 242.471Z" stroke="#6246E5"/>
<path d="M283.918 232.506C283.918 310.194 221.029 373.17 143.453 373.17C65.8772 373.17 2.98752 310.194 2.98732 232.506C2.98732 154.819 65.877 91.8413 143.453 91.8413C221.029 91.8415 283.918 154.819 283.918 232.506Z" stroke="#6246E5"/>
<path d="M307.965 224.203C307.965 309.228 239.136 378.153 154.232 378.153C69.3291 378.153 0.500245 309.228 0.50001 224.203C0.500014 139.178 69.329 70.2518 154.232 70.2518C239.136 70.2519 307.965 139.178 307.965 224.203Z" stroke="#6246E5"/>
<path d="M335.329 215.899C335.329 307.345 261.302 381.475 169.987 381.475C78.6727 381.475 4.64655 307.344 4.64649 215.899C4.6465 124.453 78.6727 50.3229 169.987 50.3227C261.302 50.3227 335.329 124.453 335.329 215.899Z" stroke="#6246E5"/>
<path d="M361.864 208.01C361.864 305.647 282.825 384.796 185.327 384.796C87.8303 384.796 8.79224 305.647 8.79225 208.01C8.79228 110.373 87.8304 31.224 185.327 31.2238C282.825 31.2238 361.864 110.373 361.864 208.01Z" stroke="#6246E5"/>
<path d="M396.69 194.725C396.69 301.992 309.855 388.948 202.741 388.948C95.6268 388.948 8.79198 301.992 8.79176 194.725C8.79176 87.457 95.6267 0.500136 202.741 0.500009C309.855 0.500014 396.69 87.4569 396.69 194.725Z" stroke="#6246E5"/>
</svg>
