<svg width="119" height="154" viewBox="0 0 119 154" fill="none" xmlns="http://www.w3.org/2000/svg">
<path d="M71.8191 86.8472C70.4608 87.1514 69.1378 87.715 67.9322 88.5024C64.7915 90.5037 62.9642 93.3604 63.8511 94.8826C64.738 96.4047 68.0031 96.0154 71.1439 94.0141C72.3657 93.2545 73.451 92.2837 74.3332 91.1618C74.7426 90.6197 74.8161 89.9442 74.5209 89.4393L73.3687 87.4619C73.0755 86.9554 72.4674 86.7145 71.8191 86.8472Z" fill="#D5D6DB"/>
<path d="M63.9322 59.854C62.9473 60.0747 61.9879 60.4835 61.1136 61.0546C58.8368 62.5054 57.511 64.5768 58.1536 65.6796C58.7962 66.7824 61.1647 66.4998 63.4413 65.0492C64.3272 64.4981 65.1141 63.7938 65.7539 62.9802C66.0504 62.5873 66.1035 62.0979 65.8895 61.7318L65.0552 60.3001C64.8429 59.9329 64.4023 59.7579 63.9322 59.854Z" fill="#D5D6DB"/>
<path d="M51.118 60.9845C50.8988 60.96 50.665 61.0184 50.4622 61.148L45.114 64.5562C44.6667 64.8404 44.4877 65.3877 44.7146 65.7789C44.7665 65.8685 44.8375 65.9451 44.9237 66.0041L58.1054 75.089L75.9388 63.7243L51.118 60.9845Z" fill="#029BC5"/>
<path d="M107.495 59.7002L58.9629 90.2523L30.2502 101.678L15.607 104.588L13.9961 101.851L94.8912 51.9046C97.302 50.4097 99.9876 49.4922 102.676 49.2451C103.854 49.1432 105.017 49.1823 106.138 49.3611C107.132 49.5118 108.075 49.8025 108.939 50.2246C109.902 50.7029 111.737 50.758 112.331 51.7108C112.333 51.7093 113.735 56.0837 107.495 59.7002Z" fill="#E1E6E9"/>
<path d="M59.6063 86.2092L38.611 119.679C38.3488 120.149 38.5044 120.676 38.9583 120.855C39.2369 120.965 39.5778 120.922 39.8642 120.74L45.2082 117.349C46.2361 116.697 47.1462 115.869 47.8823 114.915L88.5987 67.046L59.6063 86.2092Z" fill="#029BC5"/>
<path d="M6.62667 85.092C6.27645 84.9723 5.85966 85.0344 5.50784 85.2584L1.09034 88.0718C0.488427 88.4549 0.248576 89.1913 0.554438 89.717C0.612713 89.8169 0.688413 89.9049 0.779149 89.9773L13.1559 99.8897L26.1689 91.7615L6.62667 85.092Z" fill="#029BC5"/>
<path d="M17.3042 101.676L10.6428 111.006C10.5451 111.14 10.5681 111.308 10.694 111.382C10.7848 111.435 10.9089 111.425 11.0096 111.357L15.1379 108.742C15.17 108.721 15.199 108.696 15.223 108.667L24.9565 96.8319L17.3042 101.676Z" fill="#029BC5"/>
<path d="M105.341 49.7631C104.187 49.5777 102.989 49.5381 101.776 49.6447C100.595 51.2958 99.8407 53.1505 99.5873 55.0239C99.5688 55.4002 99.8722 55.6711 100.265 55.6289C100.387 55.6157 100.509 55.5727 100.618 55.504L108.226 50.6597C107.336 50.2211 106.365 49.9193 105.341 49.7631Z" fill="#029BC5"/>
<path d="M88.7622 58.671L93.7292 55.5341L98.3558 63.4031L93.3888 66.5401L88.7622 58.671Z" fill="#D5D6DB"/>
<path d="M85.6368 61.7836C85.0383 62.1628 84.799 62.8916 85.1029 63.4113L85.5952 64.2532C85.919 64.7597 86.6583 64.8488 87.2466 64.4521C87.8064 64.0743 88.0319 63.3876 87.7621 62.8806L87.2698 62.0386C86.9662 61.5193 86.2353 61.4051 85.6368 61.7836Z" fill="#3A556A"/>
<path d="M81.1725 64.5561C80.5739 64.9352 80.3347 65.664 80.6385 66.1837L81.1308 67.0257C81.4547 67.5322 82.194 67.6212 82.7822 67.2245C83.3421 66.8467 83.5675 66.1601 83.2977 65.653L82.8054 64.8111C82.5015 64.2919 81.7707 64.1777 81.1725 64.5561Z" fill="#3A556A"/>
<path d="M76.7066 67.3294C76.1087 67.709 75.8703 68.4369 76.1739 68.9562L76.6662 69.7981C76.9901 70.3046 77.7294 70.3936 78.3176 69.9969C78.8775 69.6191 79.1029 68.9325 78.8331 68.4255L78.3408 67.5835C78.0369 67.0638 77.3054 66.95 76.7066 67.3294Z" fill="#3A556A"/>
<path d="M72.2422 70.1018C71.6443 70.4814 71.406 71.2094 71.7096 71.7286L72.2019 72.5706C72.5257 73.0771 73.265 73.1662 73.8533 72.7694C74.4131 72.3917 74.6386 71.705 74.3688 71.198L73.8765 70.356C73.5723 69.8364 72.8408 69.7226 72.2422 70.1018Z" fill="#3A556A"/>
<path d="M67.7783 72.8745C67.18 73.2543 66.9415 73.9825 67.2453 74.502L67.7379 75.3443C68.0416 75.8636 68.7728 75.9773 69.3712 75.5983C69.9696 75.2193 70.2085 74.4912 69.9048 73.9719L69.4122 73.1296C69.1093 72.6098 68.3783 72.4953 67.7795 72.8737C67.779 72.874 67.7788 72.8741 67.7783 72.8745Z" fill="#3A556A"/>
<path d="M63.3139 75.6469C62.7157 76.0267 62.4772 76.755 62.781 77.2745L63.2736 78.1168C63.5772 78.6361 64.3085 78.7498 64.9068 78.3708C65.5052 77.9918 65.7441 77.2636 65.4404 76.7443L64.9478 75.902C64.6449 75.3823 63.9139 75.2678 63.3152 75.6461C63.3147 75.6464 63.3142 75.6468 63.3139 75.6469Z" fill="#3A556A"/>
<path d="M58.8493 78.4194C58.2511 78.7992 58.0125 79.5274 58.3163 80.0469L58.8089 80.8892C59.1134 81.408 59.845 81.5206 60.4427 81.1411C61.0394 80.7622 61.2778 80.0356 60.9755 79.517L60.4829 78.6746C60.1794 78.155 59.4482 78.0407 58.8493 78.4194Z" fill="#3A556A"/>
<path d="M54.3847 81.1918C53.7865 81.5716 53.5479 82.2999 53.8517 82.8194L54.3443 83.6617C54.6488 84.1805 55.3804 84.2931 55.9781 83.9136C56.5748 83.5347 56.8132 82.8081 56.5109 82.2894L56.0183 81.4471C55.7148 80.9274 54.9836 80.8131 54.3847 81.1918Z" fill="#3A556A"/>
<path d="M49.9203 83.9643C49.3221 84.3441 49.0836 85.0723 49.3874 85.5918L49.88 86.4341C50.1844 86.9529 50.916 87.0655 51.5137 86.686C52.1104 86.3072 52.3488 85.5805 52.0466 85.0619L51.554 84.2196C51.2502 83.7001 50.519 83.5858 49.9203 83.9643Z" fill="#3A556A"/>
<path d="M45.4545 86.7377C44.8562 87.1167 44.6173 87.8449 44.9209 88.3642L44.9216 88.3653L45.4142 89.2076C45.7186 89.7264 46.4502 89.839 47.0479 89.4595C47.6446 89.0806 47.883 88.354 47.5808 87.8353L47.0882 86.993C46.7846 86.4733 46.0534 86.359 45.4545 86.7377Z" fill="#3A556A"/>
<path d="M40.9914 89.5092C40.393 89.8882 40.1541 90.6164 40.4578 91.1356L40.4584 91.1367L40.951 91.979C41.2555 92.4978 41.9871 92.6104 42.5848 92.2309C43.1815 91.8521 43.4199 91.1254 43.1177 90.6068L42.6251 89.7645C42.3213 89.245 41.59 89.1307 40.9914 89.5092Z" fill="#3A556A"/>
</svg>
